<?xml version="1.0" encoding="UTF-8"?>
<svg width="852px" height="164px" viewBox="0 0 852 164" version="1.1" xmlns="http://www.w3.org/2000/svg" xmlns:xlink="http://www.w3.org/1999/xlink">
    <!-- Generator: Sketch 46.2 (44496) - http://www.bohemiancoding.com/sketch -->
    <title>Untitled</title>
    <desc>Created with Sketch.</desc>
    <defs></defs>
    <g id="Page-1" stroke="none" stroke-width="1" fill="none" fill-rule="evenodd">
        <g id="th_logo_color_fill" fill-rule="nonzero">
            <polygon id="Shape" fill="#00B1E1" points="38.24 88 38.24 160.5 16.88 160.5 16.88 88 0.5 88 0.5 68 16.88 68 16.88 34.1 38.24 34.1 38.24 68 54.86 68 54.86 88"></polygon>
            <path d="M139.26,68 L160.72,68 L160.72,160.5 L139.26,160.5 L139.26,150.81 C130.46,159.036667 120.996667,163.15 110.87,163.15 C98.0833333,163.15 87.5133333,158.53 79.16,149.29 C70.8666667,139.863333 66.72,128.1 66.72,114 C66.72,100.14 70.8666667,88.5866667 79.16,79.34 C86.9613897,70.3177022 98.3750346,65.2376406 110.3,65.48 C121.06,65.48 130.726667,69.91 139.3,78.77 L139.26,68 Z M88.56,114 C88.56,122.86 90.9333333,130.076667 95.68,135.65 C100.211261,141.126805 106.993052,144.237887 114.1,144.1 C122.013333,144.1 128.406667,141.376667 133.28,135.93 C138.153333,130.296667 140.59,123.143333 140.59,114.47 C140.59,105.796667 138.153333,98.64 133.28,93 C128.406667,87.4933333 122.073333,84.74 114.28,84.74 C107.198664,84.6210014 100.437632,87.6858559 95.86,93.09 C90.9933333,98.7233333 88.56,105.693333 88.56,114 Z" id="Shape" fill="#00B1E1"></path>
            <path d="M187.68,68 L209,68 L209,76.54 C213.113333,72.2333333 216.626667,69.32 219.54,67.8 C223.192426,66.1013934 227.19437,65.2893552 231.22,65.43 C241.666667,65.43 249.926667,69.9866667 256,79.1 C262.706667,69.9866667 271.79,65.43 283.25,65.43 C304.076667,65.43 314.49,78.0566667 314.49,103.31 L314.49,160.5 L293.07,160.5 L293.07,109.14 C293.07,100.28 291.993333,94.0133333 289.84,90.34 C287.686667,86.6666667 284.046667,84.8 278.92,84.74 C273.033333,84.74 268.743333,86.9566667 266.05,91.39 C263.356667,95.8233333 262.023333,102.943333 262.05,112.75 L262.05,160.5 L240.57,160.5 L240.57,109.42 C240.57,92.9666667 235.823333,84.7366667 226.33,84.73 C220.33,84.73 215.946667,86.9766667 213.18,91.47 C210.413333,95.9633333 209.02,103.053333 209,112.74 L209,160.5 L187.68,160.5 L187.68,68 Z" id="Shape" fill="#00B1E1"></path>
            <path d="M362.86,68 L362.86,121.1 C362.86,136.433333 368.903333,144.1 380.99,144.1 C393.076667,144.1 399.12,136.433333 399.12,121.1 L399.12,68 L420.48,68 L420.48,121.55 C420.615673,128.050536 419.686733,134.52947 417.73,140.73 C415.797411,145.766397 412.630477,150.236553 408.52,153.73 C401.306667,159.996667 392.13,163.13 380.99,163.13 C369.85,163.13 360.703333,159.996667 353.55,153.73 C349.386139,150.244123 346.155652,145.776428 344.15,140.73 C342.376667,136.423333 341.49,130.03 341.49,121.55 L341.49,68 L362.86,68 Z" id="Shape" fill="#00B1E1"></path>
            <path d="M447.45,0.14 L468.81,0.14 L468.81,75.72 C476.403333,68.8866667 484.79,65.47 493.97,65.47 C504.416667,65.47 512.773333,68.8566667 519.04,75.63 C524.373333,81.5166667 527.04,90.9166667 527.04,103.83 L527.04,160.5 L505.66,160.5 L505.66,105.81 C505.66,98.4033333 504.346667,93.04 501.72,89.72 C499.093333,86.4 494.87,84.7333333 489.05,84.72 C481.583333,84.72 476.33,87.03 473.29,91.65 C470.25,96.27 468.763333,104.31 468.83,115.77 L468.83,160.5 L447.45,160.5 L447.45,0.14 Z" id="Shape" fill="#F06589"></path>
            <path d="M622.25,68 L643.71,68 L643.71,160.5 L622.25,160.5 L622.25,150.81 C613.45,159.036667 603.986667,163.15 593.86,163.15 C581.073333,163.15 570.503333,158.53 562.15,149.29 C553.856667,139.863333 549.71,128.1 549.71,114 C549.71,100.14 553.856667,88.5866667 562.15,79.34 C569.95139,70.3177022 581.365035,65.2376406 593.29,65.48 C604.05,65.48 613.716667,69.91 622.29,78.77 L622.25,68 Z M571.55,114 C571.55,122.86 573.923333,130.076667 578.67,135.65 C583.201261,141.126805 589.983052,144.237887 597.09,144.1 C605.003333,144.1 611.396667,141.376667 616.27,135.93 C621.143333,130.296667 623.58,123.143333 623.58,114.47 C623.58,105.796667 621.143333,98.64 616.27,93 C611.396667,87.4933333 605.063333,84.74 597.27,84.74 C590.188664,84.6210014 583.427632,87.6858559 578.85,93.09 C573.983333,98.7233333 571.55,105.693333 571.55,114 Z" id="Shape" fill="#F06589"></path>
            <path d="M742.64,72 L742.64,93.91 C742.646216,94.9091346 742.040218,95.8102395 741.112526,96.1813159 C740.184835,96.5523924 739.124557,96.3177981 738.44,95.59 C735.840365,92.6945845 732.839988,90.1858517 729.53,88.14 C725.465966,85.7906638 720.832872,84.6073043 716.14,84.72 C708.569758,84.5367712 701.285563,87.6143433 696.14,93.17 C690.806667,98.8033333 688.14,105.86 688.14,114.34 C688.14,123.006667 690.703333,130.126667 695.83,135.7 C700.956667,141.273333 707.57,144.06 715.67,144.06 C720.408916,144.158177 725.090913,143.013536 729.25,140.74 C732.323333,139 735.826667,135.936667 739.76,131.55 C740.211778,131.037724 740.933756,130.859089 741.572285,131.101597 C742.210815,131.344105 742.632187,131.956973 742.63,132.64 L742.63,156.41 C734.636655,160.728083 725.714465,163.040989 716.63,163.15 C702.323333,163.15 690.36,158.53 680.74,149.29 C671.12,140.05 666.306667,128.5 666.3,114.64 C666.3,100.84 671.173333,89.1933333 680.92,79.7 C690.666667,70.2066667 702.63,65.46 716.81,65.46 C725.833127,65.4319394 734.717424,67.6813896 742.64,72 L742.64,72 Z" id="Shape" fill="#F06589"></path>
            <polygon id="Shape" fill="#F06589" points="789.73 0.14 789.73 97.93 819.83 68 848.5 68 808.34 106.83 851.44 160.47 823.72 160.47 793.15 121.47 789.73 124.89 789.73 160.5 768.37 160.5 768.37 0.14"></polygon>
        </g>
    </g>
</svg>